# xmcd CD database file
#
# Track frame offsets:
#	150
#	49650
#	98912
#	134465
#	164007
#	191177
#
# Disc length: 2673 seconds
#
# Revision: 1
# Processed by: cddbd v1.5.1PL2 Copyright (c) Steve Scherf et al.
# Submitted via: CDex 1.51
#
DISCID=550a6f06
DTITLE=Arnett Cobb - Live
DYEAR=1982
DGENRE=Jazz
TTITLE0=Cobb's Idea
TTITLE1=Sweet Georgia Brown
TTITLE2=Just A Closer Walk With Thee
TTITLE3=Body And Soul
TTITLE4=I Got Rhythm
TTITLE5=Final Words By Arnett Cobb
EXTD=YEAR: 1982
EXTT0=
EXTT1=
EXTT2=
EXTT3=
EXTT4=
EXTT5=
PLAYORDER=
